# xmcd
#
# Track frame offsets:
#	150
#	10481
#	21227
#	31761
#	42273
#	51223
#	60966
#	72649
#	82163
#	96722
#	110222
#	122890
#	132785
#	145022
#	155336
#	167064
#	176187
#	187927
#	198343
#	209968
#	221331
#	233178
#	246226
#	257832
#	270770
#
# Disc length: 3738 seconds
#
# Revision: 1
# Processed by: cddbd v1.5.2PL0 Copyright (c) Steve Scherf et al.
# Submitted via: audiograbber 1.83.01
#
DISCID=770e9819
DTITLE=Various Artist - Beginner's Guide To Rythm 'N' Blues - Into Soul [CD3)
DYEAR=2010
DGENRE=R&B
TTITLE0=Betty Everett - You're No Good
TTITLE1=Lee Dorsey - Ya Ya
TTITLE2=Little Richard - Dance What You Wanna
TTITLE3=Alvin Cash and The Registers - Twine Time
TTITLE4=Gladis Knight and The Pips - Room In Your Heart
TTITLE5=Dee Clark - Just Keep It Up
TTITLE6=Mckinley 'Soul' Mitchell - No Love (Like My Love)
TTITLE7=Andrew Brown - Something Can Go Wrong
TTITLE8=Mighty Joe Young - Hard Times Follow Me
TTITLE9=Jerry Butler - I Stand Accused
TTITLE10=Dorothy Prince - Lost A Love
TTITLE11=Betty Everett - Getting' Mighty Crowded
TTITLE12=Jerry Butler and Betty Everett - Ain't That Loving You Baby
TTITLE13=Al Perkins and Betty Perkins - Homework
TTITLE14=Ricky Allen - Messed Around (And fell In Love)
TTITLE15=Banny Price - You Love Me Pretty Baby
TTITLE16=Lonnie Brooks - I'm Not Going Home
TTITLE17=Toussaint McCall - Shimmy
TTITLE18=Art Neville - Hook, Line and Sinker
TTITLE19=A. C. Reed - I've Got Money To Burn
TTITLE20=Gene Thompson and The Counts - Won't You Let Me Know
TTITLE21=Harold Burrage - Master Key
TTITLE22=Jimmy Burns - Forget It
TTITLE23=Frank Frost - Harp and Soul
TTITLE24=Peppermint Harris - Wait Until It Happens To You
EXTD=Das Album enthält 3 CD's.
EXTT0=
EXTT1=
EXTT2=
EXTT3=
EXTT4=
EXTT5=
EXTT6=
EXTT7=
EXTT8=
EXTT9=
EXTT10=
EXTT11=
EXTT12=
EXTT13=
EXTT14=
EXTT15=
EXTT16=
EXTT17=
EXTT18=
EXTT19=
EXTT20=
EXTT21=
EXTT22=
EXTT23=
EXTT24=
PLAYORDER=
